<?xml version="1.0" encoding="UTF-8"?>
<svg xmlns="http://www.w3.org/2000/svg" xmlns:xlink="http://www.w3.org/1999/xlink" width="135px" height="119px" viewBox="0 0 135 119" version="1.1">
<g id="surface1">
<path style=" stroke:none;fill-rule:evenodd;fill:rgb(0%,0%,0%);fill-opacity:1;" d="M 67.5 25.21875 C 102.019531 25.21875 130.183594 40.621094 130.183594 59.507812 C 130.183594 78.378906 102.019531 93.785156 67.5 93.785156 C 32.980469 93.785156 4.816406 78.378906 4.816406 59.507812 C 4.816406 40.621094 32.980469 25.21875 67.5 25.21875 Z M 67.5 25.21875 "/>
<path style=" stroke:none;fill-rule:evenodd;fill:rgb(100%,94.901961%,17.647059%);fill-opacity:1;" d="M 67.5 28.1875 C 100.175781 28.1875 126.824219 42.257812 126.824219 59.511719 C 126.824219 76.742188 100.175781 90.8125 67.5 90.8125 C 34.835938 90.8125 8.183594 76.742188 8.183594 59.511719 C 8.183594 42.257812 34.835938 28.1875 67.5 28.1875 Z M 67.5 28.1875 "/>
<path style=" stroke:none;fill-rule:evenodd;fill:rgb(0%,0%,0%);fill-opacity:1;" d="M 67.824219 87.664062 C 64.359375 73.183594 53.566406 67.777344 49.710938 79.089844 C 41.429688 64.914062 23.125 69.128906 34.273438 82.972656 C 32.167969 82.171875 30.160156 81.316406 28.292969 80.386719 C 22.238281 77.101562 17.605469 73.402344 14.445312 69.527344 C 12.179688 66.398438 10.949219 63.019531 10.949219 59.511719 C 10.949219 47.300781 25.734375 36.816406 46.570312 32.535156 C 46.882812 32.488281 47.207031 32.441406 47.53125 32.390625 C 31.660156 50.9375 54.101562 63.867188 58.214844 47.605469 L 59.988281 32.5625 L 63.546875 36.589844 L 72.28125 36.589844 L 75.832031 32.5625 L 77.613281 47.605469 C 81.703125 63.832031 104.050781 51.003906 88.410156 32.527344 C 109.261719 36.816406 124.050781 47.304688 124.050781 59.511719 C 124.050781 68.855469 115.363281 77.199219 101.914062 82.515625 C 112.308594 69.046875 94.300781 65.066406 86.121094 79.089844 C 82.265625 67.777344 71.308594 73.324219 67.824219 87.664062 Z M 67.824219 87.664062 "/>
</g>
</svg>
